<svg width="277" height="59" viewBox="0 0 277 59" fill="none" xmlns="http://www.w3.org/2000/svg">
<g clip-path="url(#clip0_1002_6)">
<path d="M81.2991 43.4589V37.7412H82.3441C83.1485 37.7412 83.7063 37.953 84.0351 38.3765C84.3638 38.8059 84.5224 39.5412 84.5224 40.5942C84.5224 41.6471 84.358 42.3824 84.0351 42.8118C83.7063 43.2412 83.1426 43.4589 82.3441 43.4589H81.2991ZM82.0976 42.7177H82.5085C82.9606 42.7177 83.2777 42.5647 83.4538 42.253C83.63 41.9353 83.7239 41.3883 83.7239 40.5883C83.7239 39.7883 83.6358 39.2412 83.4538 38.9294C83.2777 38.6236 82.9606 38.4589 82.5085 38.4589H82.0976V42.7177Z" fill="white"/>
<path d="M90.329 43.4589V37.7412H92.701V38.4295H91.1392V40.1294H92.56V40.8118H91.1392V42.7471H92.701V43.4589H90.329Z" fill="white"/>
<path d="M98.3491 42.4533C98.5428 42.565 98.7189 42.6474 98.8775 42.7062C99.036 42.7591 99.1828 42.7886 99.3295 42.7886C99.5761 42.7886 99.7581 42.718 99.9049 42.5827C100.046 42.4474 100.122 42.265 100.122 42.0297C100.122 41.6944 99.8403 41.3121 99.3002 40.8768C99.2415 40.8238 99.1828 40.7827 99.1593 40.7591C98.807 40.4827 98.5604 40.218 98.4195 39.9827C98.2727 39.7415 98.2023 39.4768 98.2023 39.1768C98.2023 38.7474 98.3432 38.3886 98.6309 38.1003C98.9127 37.8121 99.2591 37.6709 99.676 37.6709C99.858 37.6709 100.04 37.6944 100.21 37.7356C100.38 37.7768 100.551 37.8415 100.715 37.9297V38.7003C100.562 38.5885 100.398 38.5121 100.257 38.465C100.11 38.418 99.9695 38.3885 99.8169 38.3885C99.5644 38.3885 99.3706 38.465 99.2239 38.6062C99.0712 38.7532 98.989 38.9415 98.989 39.1768C98.989 39.5062 99.2826 39.9003 99.8638 40.3415C99.9108 40.3827 99.9578 40.4121 99.9812 40.4356C100.316 40.7003 100.557 40.9474 100.703 41.1944C100.838 41.4356 100.909 41.7121 100.909 42.0238C100.909 42.465 100.768 42.8238 100.474 43.1062C100.187 43.3885 99.811 43.5356 99.3706 43.5356C99.2062 43.5356 99.036 43.5121 98.8657 43.465C98.6955 43.418 98.5193 43.3474 98.3314 43.2474V42.4591L98.3491 42.4533Z" fill="white"/>
<path d="M107.449 37.7412H106.657V43.4589H107.449V37.7412Z" fill="white"/>
<path d="M116.685 40.3885C116.685 40.5062 116.697 40.6238 116.702 40.7356C116.702 40.8532 116.708 40.965 116.708 41.065C116.708 41.9062 116.573 42.5238 116.286 42.9297C116.01 43.3297 115.575 43.5297 114.988 43.5297C114.401 43.5297 113.955 43.3003 113.679 42.8474C113.409 42.3885 113.28 41.6415 113.28 40.6062C113.28 39.5709 113.409 38.7944 113.685 38.3474C113.955 37.8944 114.395 37.6709 115.017 37.6709C115.446 37.6709 115.804 37.7709 116.068 37.9709C116.338 38.1709 116.52 38.4709 116.614 38.8768L115.916 39.2062C115.857 38.9238 115.757 38.718 115.605 38.5827C115.452 38.4474 115.264 38.3827 115.023 38.3827C114.677 38.3827 114.43 38.5474 114.284 38.865C114.143 39.1827 114.078 39.7591 114.078 40.5944C114.078 41.4297 114.148 41.9944 114.284 42.318C114.43 42.6415 114.677 42.8062 115.023 42.8062C115.329 42.8062 115.552 42.6827 115.704 42.4415C115.857 42.1944 115.933 41.8297 115.933 41.3415V41.1768C115.933 41.1415 115.933 41.1062 115.933 41.0768H115.094V40.4062H116.679L116.685 40.3885Z" fill="white"/>
<path d="M122.497 43.4589V37.7412H123.231L124.793 41.7118V37.7412H125.556V43.4589H124.805L123.249 39.453V43.4589H122.497Z" fill="white"/>
<path d="M138.138 43.4589V37.7412H139.183C139.994 37.7412 140.557 37.953 140.886 38.3765C141.215 38.8059 141.379 39.5412 141.379 40.5942C141.379 41.6471 141.215 42.3824 140.886 42.8118C140.557 43.2412 139.994 43.4589 139.183 43.4589H138.138ZM138.943 42.7177H139.354C139.806 42.7177 140.117 42.5647 140.305 42.253C140.487 41.9353 140.581 41.3883 140.581 40.5883C140.581 39.7883 140.493 39.2412 140.311 38.9294C140.129 38.6236 139.817 38.4589 139.36 38.4589H138.949V42.7177H138.943Z" fill="white"/>
<path d="M147.021 40.6062C147.021 39.5591 147.157 38.8062 147.421 38.3533C147.679 37.9003 148.102 37.6709 148.701 37.6709C149.3 37.6709 149.722 37.8944 149.986 38.3533C150.245 38.8062 150.374 39.5591 150.374 40.6121C150.374 41.665 150.245 42.4062 149.986 42.8532C149.722 43.3062 149.294 43.5356 148.701 43.5356C148.108 43.5356 147.679 43.3062 147.421 42.8532C147.157 42.4003 147.021 41.6533 147.021 40.6121M147.832 40.5944C147.832 41.4003 147.896 41.9768 148.031 42.3121C148.178 42.6415 148.395 42.8121 148.712 42.8121C149.029 42.8121 149.253 42.6474 149.376 42.3356C149.499 42.0238 149.575 41.4415 149.575 40.5944C149.575 39.7474 149.499 39.2003 149.37 38.8768C149.247 38.5474 149.018 38.3885 148.701 38.3885C148.384 38.3885 148.166 38.5532 148.025 38.8768C147.896 39.2062 147.832 39.7768 147.832 40.5885" fill="white"/>
<path d="M165.234 43.3293C165.111 43.394 164.964 43.4469 164.84 43.4763C164.711 43.5057 164.559 43.5293 164.406 43.5293C163.807 43.5293 163.355 43.294 163.061 42.8116C162.756 42.3351 162.609 41.6116 162.609 40.6469C162.609 39.6822 162.768 38.9234 163.085 38.4175C163.402 37.9116 163.883 37.6646 164.5 37.6646C164.635 37.6646 164.77 37.6763 164.887 37.7057C165.011 37.7293 165.128 37.7646 165.234 37.8175V38.5469C165.128 38.4881 165.017 38.4528 164.911 38.4234C164.799 38.3998 164.711 38.3822 164.623 38.3822C164.195 38.3822 163.883 38.5646 163.696 38.9175C163.496 39.2763 163.396 39.8528 163.396 40.6351C163.396 41.3646 163.49 41.9057 163.678 42.2587C163.866 42.6057 164.148 42.7881 164.541 42.7881C164.647 42.7881 164.758 42.7646 164.882 42.7293C164.987 42.694 165.111 42.641 165.24 42.5704V43.3234L165.234 43.3293Z" fill="white"/>
<path d="M170.747 40.6062C170.747 39.5591 170.876 38.8062 171.14 38.3533C171.405 37.9003 171.822 37.6709 172.42 37.6709C173.019 37.6709 173.442 37.8944 173.706 38.3533C173.97 38.8062 174.094 39.5591 174.094 40.6121C174.094 41.665 173.97 42.4062 173.706 42.8532C173.442 43.3062 173.013 43.5356 172.42 43.5356C171.827 43.5356 171.405 43.3062 171.14 42.8532C170.876 42.4003 170.747 41.6533 170.747 40.6121M171.546 40.5944C171.546 41.4003 171.61 41.9768 171.739 42.3121C171.886 42.6415 172.109 42.8121 172.426 42.8121C172.743 42.8121 172.966 42.6474 173.09 42.3356C173.225 42.0238 173.289 41.4415 173.289 40.5944C173.289 39.7474 173.225 39.2003 173.09 38.8768C172.961 38.5474 172.732 38.3885 172.42 38.3885C172.109 38.3885 171.886 38.5532 171.739 38.8768C171.61 39.2062 171.546 39.7768 171.546 40.5885" fill="white"/>
<path d="M179.936 43.4589V37.7412H180.669L182.237 41.7118V37.7412H182.989V43.4589H182.243L180.687 39.453V43.4589H179.936Z" fill="white"/>
<path d="M189.012 43.4589V37.7412H189.811V39.9118H191.232V37.7412H192.024V43.4589H191.232V40.6353H189.811V43.4589H189.012Z" fill="white"/>
<path d="M198.031 43.4589V37.7412H200.391V38.4295H198.823V40.1294H200.25V40.8118H198.823V42.7471H200.391V43.4589H198.031Z" fill="white"/>
<path d="M208.634 43.3293C208.505 43.394 208.364 43.4469 208.235 43.4763C208.106 43.5057 207.953 43.5293 207.806 43.5293C207.201 43.5293 206.755 43.294 206.462 42.8116C206.156 42.3351 206.01 41.6116 206.01 40.6469C206.01 39.6822 206.168 38.9234 206.485 38.4175C206.802 37.9116 207.284 37.6646 207.906 37.6646C208.041 37.6646 208.176 37.6763 208.288 37.7057C208.417 37.7293 208.528 37.7646 208.64 37.8175V38.5469C208.522 38.4881 208.423 38.4528 208.317 38.4234C208.205 38.3998 208.117 38.3822 208.029 38.3822C207.606 38.3822 207.295 38.5646 207.102 38.9175C206.902 39.2763 206.802 39.8528 206.802 40.6351C206.802 41.3646 206.896 41.9057 207.084 42.2587C207.272 42.6057 207.548 42.7881 207.941 42.7881C208.047 42.7881 208.158 42.7646 208.276 42.7293C208.381 42.694 208.511 42.641 208.64 42.5704V43.3234L208.634 43.3293Z" fill="white"/>
<path d="M215.11 37.7412H214.305V43.4589H215.11V37.7412Z" fill="white"/>
<path d="M220.905 43.4589L221.416 37.7412H222.132L222.924 41.6942L223.746 37.7412H224.445L224.962 43.4589H224.222L223.987 39.4471L223.195 43.4589H222.66L221.868 39.4471L221.633 43.4589H220.905Z" fill="white"/>
<path d="M230.71 43.4589V37.7412H233.076V38.4295H231.502V40.1294H232.941V40.8118H231.502V42.7471H233.076V43.4589H230.71Z" fill="white"/>
<path d="M238.865 43.4589V37.7412H239.604L241.178 41.7118V37.7412H241.924V43.4589H241.178L239.622 39.453V43.4589H238.865Z" fill="white"/>
<path d="M248.593 43.4589V38.453H247.495V37.7412H250.49V38.453H249.392V43.4589H248.593Z" fill="white"/>
<path d="M255.745 40.6062C255.745 39.5591 255.88 38.8062 256.132 38.3533C256.396 37.9003 256.825 37.6709 257.424 37.6709C258.023 37.6709 258.445 37.8944 258.698 38.3533C258.956 38.8062 259.097 39.5591 259.097 40.6121C259.097 41.665 258.956 42.4062 258.698 42.8532C258.445 43.3062 258.017 43.5356 257.424 43.5356C256.831 43.5356 256.396 43.3062 256.132 42.8532C255.88 42.4003 255.745 41.6533 255.745 40.6121M256.555 40.5944C256.555 41.4003 256.625 41.9768 256.754 42.3121C256.889 42.6415 257.124 42.8121 257.436 42.8121C257.747 42.8121 257.964 42.6474 258.105 42.3356C258.228 42.0238 258.287 41.4415 258.287 40.5944C258.287 39.7474 258.222 39.2003 258.099 38.8768C257.958 38.5474 257.741 38.3885 257.43 38.3885C257.118 38.3885 256.889 38.5532 256.754 38.8768C256.625 39.2062 256.561 39.7768 256.561 40.5885" fill="white"/>
<path d="M65.118 14.4826C65.2882 13.2297 64.4075 12.0297 63.157 11.8179C61.9005 11.6121 60.6852 12.4591 60.4445 13.7062L59.7751 17.1356C59.5344 18.3827 58.3778 19.8003 57.1977 20.2768L53.9744 21.6003C52.7943 22.0827 52.213 23.4532 52.6534 24.6356C53.1054 25.8238 54.4441 26.4591 55.6477 26.0474L58.9473 24.9062C60.1509 24.4944 61.9534 24.7944 62.9574 25.5709L65.7051 27.7121C66.7149 28.4827 68.1886 28.318 68.9988 27.3415C69.8091 26.3591 69.674 24.8709 68.7229 24.0415L66.0926 21.7474C65.1297 20.9121 64.4897 19.1944 64.66 17.9415L65.1238 14.4768L65.118 14.4826Z" fill="white"/>
<path d="M70.1966 37.6938C70.9599 35.8585 70.1027 33.6997 68.3061 32.8879C66.5095 32.0762 64.3137 32.8644 63.4565 34.6467L61.0786 39.5526C60.2214 41.335 57.914 43.0056 55.9413 43.2585L50.5633 43.9585C48.5906 44.2115 47.1521 46.035 47.3459 48.0115C47.5513 49.982 49.3303 51.4762 51.3031 51.335L56.7222 50.9468C58.6949 50.8056 61.2959 51.9762 62.4936 53.5526L65.7991 57.8762C67.0086 59.4526 69.2983 59.7938 70.907 58.6409C72.5099 57.482 72.915 55.1879 71.8171 53.5526L68.7582 49.0409C67.6485 47.3997 67.355 44.5526 68.1182 42.7232L70.2142 37.6938H70.1966Z" fill="white"/>
<path d="M33.9653 15.2173C34.3587 14.0056 33.7129 12.6644 32.5269 12.235C31.3292 11.7997 29.9729 12.4115 29.5091 13.5997L28.235 16.8468C27.7595 18.0291 26.3621 19.2056 25.1233 19.4703L21.7062 20.1821C20.4615 20.435 19.6396 21.6762 19.8568 22.9232C20.0741 24.1762 21.2894 25.0409 22.54 24.8585L25.9981 24.3409C27.2487 24.1585 28.9689 24.7762 29.8085 25.7291L32.1276 28.335C32.9731 29.2762 34.4585 29.3821 35.4273 28.5703C36.4078 27.7526 36.5487 26.2703 35.7561 25.2762L33.5896 22.5409C32.7911 21.5468 32.4741 19.7409 32.8674 18.535L33.9595 15.2232L33.9653 15.2173Z" fill="white"/>
<path d="M44.0228 1.47069C43.2771 0.441275 41.8211 0.17069 40.776 0.876572C39.7251 1.58834 39.408 3.04716 40.0891 4.12363L41.9561 7.07657C42.6196 8.14716 42.7487 9.97657 42.2262 11.1354L40.7877 14.3119C40.2535 15.4707 40.7584 16.8766 41.8915 17.4295C43.0305 17.9942 44.4455 17.5295 45.0326 16.406L46.6648 13.3178C47.2461 12.1883 48.7667 11.1707 50.0349 11.0472L53.5048 10.7119C54.7671 10.5824 55.7241 9.44716 55.6419 8.18245C55.5538 6.91187 54.4442 5.91774 53.1877 5.97068L49.7002 6.11187C48.4321 6.15893 46.7881 5.35304 46.0542 4.31774L44.0228 1.47069Z" fill="white"/>
<path d="M46.1246 25.9883C45.6784 24.8001 44.3163 24.1765 43.1186 24.6001C41.9326 25.0236 41.2691 26.3648 41.6508 27.5707L42.7193 30.9001C43.1127 32.1118 42.7839 33.906 41.9737 34.9001L39.7955 37.6177C38.9911 38.606 39.132 40.0883 40.0949 40.9118C41.0578 41.7354 42.5432 41.6412 43.3945 40.7001L45.7371 38.1177C46.5943 37.1707 48.3146 36.5648 49.571 36.7589L53.0057 37.3001C54.2621 37.5001 55.4716 36.6354 55.7065 35.3942C55.9354 34.1471 55.1076 32.906 53.8688 32.6354L50.4693 31.9001C49.2305 31.6295 47.8332 30.4413 47.3811 29.2589L46.1246 25.9942V25.9883Z" fill="white"/>
<path d="M31.8635 35.9706C32.0396 34.7176 31.1648 33.5059 29.9142 33.2823C28.6637 33.0647 27.4366 33.9059 27.1841 35.1529L26.4913 38.5765C26.2389 39.8176 25.0646 41.2235 23.8786 41.7L20.6436 42.9941C19.4752 43.4588 18.8587 44.8235 19.3049 46.0176C19.7335 47.2118 21.0722 47.8529 22.2875 47.4529L25.593 46.347C26.7849 45.947 28.5873 46.2588 29.5854 47.047L32.3273 49.2117C33.3195 50 34.7991 49.8412 35.6093 48.8706C36.4195 47.9 36.3197 46.4059 35.3627 45.5706L32.7559 43.2529C31.7989 42.4059 31.1824 40.6941 31.3644 39.4353L31.8693 35.9765L31.8635 35.9706Z" fill="white"/>
<path d="M121.311 12.3178C120.331 12.3178 119.544 13.1119 119.544 14.1001V14.1295V29.8178V30.5825C119.544 31.5648 120.325 32.3589 121.317 32.3589C122.309 32.3589 123.067 31.5648 123.067 30.5825V15.0001V14.1001C123.067 13.1119 122.28 12.3178 121.311 12.3178ZM110.508 14.8766C109.68 14.0648 108.735 13.4178 107.649 12.9472C106.569 12.4825 105.394 12.2413 104.132 12.2413C102.67 12.2413 101.308 12.5707 100.052 13.2295C98.7894 13.8884 97.7502 14.7707 96.9223 15.8942C96.0945 14.7707 95.0553 13.8825 93.8106 13.2295C92.5717 12.5707 91.2038 12.2413 89.7066 12.2413C88.4795 12.2413 87.317 12.4825 86.2132 12.9472C85.1153 13.4178 84.1642 14.0589 83.3539 14.8766C82.5378 15.6942 81.892 16.6413 81.4282 17.7295C80.9644 18.8119 80.7236 19.9884 80.7236 21.2413V30.2825H80.7647V30.5884C80.7647 31.5707 81.5515 32.3648 82.5379 32.3648C83.5242 32.3648 84.2933 31.5707 84.2933 30.5884V21.2413C84.2933 20.4884 84.4401 19.7884 84.7161 19.1354C85.0038 18.4766 85.3854 17.906 85.8786 17.4119C86.3776 16.9178 86.9471 16.5236 87.5988 16.2472C88.2505 15.9707 88.961 15.8236 89.7125 15.8236C90.464 15.8236 91.1627 15.9648 91.832 16.2472C92.5013 16.5236 93.0825 16.9178 93.5757 17.4119C94.0689 17.906 94.4505 18.4825 94.7382 19.1354C95.0259 19.7884 95.161 20.4942 95.161 21.2413V28.7766V29.5472C95.161 30.5295 95.9536 31.3295 96.9341 31.3295C97.9146 31.3295 98.7248 30.5295 98.7248 29.5472V21.2472C98.7248 20.4942 98.8598 19.7942 99.1475 19.1413C99.4176 18.4825 99.811 17.9119 100.31 17.4178C100.803 16.9237 101.379 16.5295 102.03 16.2531C102.682 15.9766 103.375 15.8295 104.126 15.8295C104.878 15.8295 105.594 15.9707 106.263 16.2531C106.927 16.5295 107.502 16.9237 108.001 17.4178C108.494 17.9119 108.888 18.4884 109.158 19.1413C109.446 19.7942 109.581 20.5001 109.581 21.2472V30.2884H109.592V30.5942C109.592 31.5766 110.391 32.3707 111.36 32.3707C112.328 32.3707 113.127 31.5766 113.127 30.5942V30.2884H113.156V21.2472C113.156 19.9942 112.927 18.8178 112.463 17.7354C111.988 16.6472 111.342 15.7001 110.508 14.8825M159.21 14.9942C158.382 14.1825 157.431 13.5354 156.345 13.0707C155.259 12.6001 154.09 12.3648 152.828 12.3648C151.36 12.3648 149.992 12.6942 148.748 13.3472C147.485 14.006 146.434 14.8942 145.612 16.0178C144.784 14.8942 143.751 14.0001 142.506 13.3472C141.262 12.6942 139.9 12.3648 138.402 12.3648C137.175 12.3648 136.013 12.6001 134.915 13.0707C133.817 13.5354 132.866 14.1825 132.05 14.9942C131.228 15.806 130.582 16.7648 130.124 17.8472C129.654 18.9295 129.414 20.106 129.414 21.3589V30.5942C129.414 31.5766 130.218 32.3707 131.204 32.3707C132.191 32.3707 132.983 31.5766 132.983 30.5942V21.3589C132.983 20.6119 133.124 19.9119 133.412 19.2531C133.7 18.6001 134.075 18.0237 134.574 17.5295C135.068 17.0354 135.643 16.6413 136.295 16.3648C136.946 16.0825 137.657 15.9413 138.402 15.9413C139.148 15.9413 139.853 16.0825 140.522 16.3648C141.191 16.6413 141.773 17.0354 142.272 17.5295C142.765 18.0237 143.146 18.6001 143.434 19.2531C143.71 19.9119 143.857 20.6119 143.857 21.3589V29.5472C143.857 30.5295 144.649 31.3295 145.636 31.3295C146.622 31.3295 147.426 30.5295 147.426 29.5472V28.9354V21.3531C147.426 20.606 147.562 19.906 147.837 19.2472C148.113 18.5942 148.501 18.0178 149 17.5237C149.499 17.0295 150.074 16.6354 150.732 16.3589C151.384 16.0766 152.076 15.9354 152.828 15.9354C153.58 15.9354 154.29 16.0766 154.953 16.3589C155.623 16.6354 156.204 17.0295 156.697 17.5237C157.19 18.0178 157.59 18.5942 157.86 19.2472C158.147 19.906 158.282 20.606 158.282 21.3531V30.3942H158.294V30.5884C158.294 31.5707 159.087 32.3648 160.079 32.3648C161.071 32.3648 161.846 31.5707 161.846 30.5884V30.3942H161.858V21.3531C161.858 20.1001 161.629 18.9237 161.159 17.8413C160.69 16.759 160.038 15.806 159.216 14.9884M235.812 30.3295C235.812 30.1295 235.806 29.9236 235.794 29.7236V29.6884C235.712 28.4589 235.389 27.306 234.831 26.2295C234.174 24.9707 233.287 23.9237 232.16 23.0942C233.287 22.2648 234.174 21.2295 234.831 19.9825C235.483 18.7413 235.812 17.3648 235.812 15.8648V14.0648C235.812 13.0825 235.025 12.2825 234.056 12.2825C233.087 12.2825 232.289 13.0766 232.289 14.0648V14.1001H232.248V15.8648C232.248 16.6178 232.107 17.3236 231.825 17.9942C231.549 18.6589 231.162 19.2413 230.669 19.7354C230.175 20.2295 229.6 20.6236 228.942 20.9001C228.279 21.1825 227.586 21.3236 226.835 21.3236C225.813 21.3236 224.85 21.4825 223.928 21.8001C223.001 22.1236 222.161 22.5825 221.386 23.1648V9.40013V8.50013C221.386 7.51189 220.582 6.71777 219.595 6.71777C218.609 6.71777 217.816 7.51189 217.816 8.50013V9.23542H217.811V30.5707H217.816C217.816 31.5531 218.609 32.3531 219.595 32.3531C220.582 32.3531 221.386 31.5531 221.386 30.5707V30.2413C221.398 29.5178 221.527 28.8413 221.803 28.2119C222.079 27.5531 222.472 26.9766 222.966 26.4825C223.465 25.9884 224.04 25.606 224.709 25.3178C225.373 25.0354 226.077 24.9001 226.829 24.9001C227.58 24.9001 228.273 25.0354 228.937 25.3178C229.594 25.606 230.169 25.9884 230.663 26.4825C231.156 26.9766 231.543 27.5531 231.819 28.2119C232.031 28.7001 232.154 29.2178 232.213 29.7589V30.5766C232.213 31.559 233.017 32.3589 234.009 32.3589C235.001 32.3589 235.806 31.559 235.806 30.5766V30.4295L235.8 30.3237L235.812 30.3295ZM258.169 19.5825C257.705 18.5001 257.054 17.5472 256.238 16.7354C255.427 15.9237 254.476 15.2766 253.402 14.8119C252.322 14.3413 251.147 14.1119 249.891 14.1119C248.634 14.1119 247.495 14.3472 246.398 14.8119C245.311 15.2766 244.343 15.9237 243.509 16.7354C242.681 17.5472 242.035 18.5001 241.571 19.5825C241.09 20.6707 240.861 21.8413 240.861 23.1001C240.861 24.359 241.09 25.4942 241.571 26.5942C242.029 27.6942 242.675 28.6589 243.509 29.4825C244.337 30.3119 245.305 30.9589 246.398 31.4295C247.495 31.9001 248.658 32.1295 249.891 32.1295H258.868V23.0942C258.868 21.8413 258.633 20.6648 258.169 19.5766M255.304 28.5531H249.891C249.139 28.5531 248.435 28.4178 247.766 28.1354C247.102 27.8531 246.515 27.4648 246.022 26.9707C245.529 26.4766 245.141 25.8942 244.859 25.2237C244.572 24.5531 244.437 23.8413 244.437 23.0942C244.437 22.3472 244.572 21.6413 244.859 20.9825C245.147 20.3295 245.534 19.7531 246.022 19.259C246.515 18.7648 247.096 18.3766 247.766 18.0942C248.435 17.8119 249.139 17.6707 249.891 17.6707C250.642 17.6707 251.335 17.8119 251.999 18.0942C252.65 18.3707 253.226 18.7648 253.725 19.259C254.218 19.7531 254.6 20.3295 254.887 20.9825C255.163 21.6413 255.304 22.3413 255.304 23.0942V28.5531ZM200.085 28.559L198.318 28.5531C197.567 28.5531 196.862 28.4119 196.199 28.1354C195.529 27.8531 194.948 27.4648 194.449 26.9707C193.956 26.4766 193.562 25.8942 193.287 25.2237C192.999 24.5531 192.864 23.8413 192.864 23.0942V21.2884H198.441H198.764C199.745 21.2884 200.537 20.4884 200.537 19.506C200.537 18.5237 199.745 17.7237 198.764 17.7237H198.441H192.864V8.70012H192.858V8.5766C192.858 7.56483 192.065 6.74129 191.085 6.74129C190.104 6.74129 189.3 7.56483 189.3 8.5766V9.51189V23.106C189.3 24.3413 189.529 25.506 190.005 26.6001C190.468 27.7001 191.114 28.659 191.942 29.4942C192.77 30.3237 193.733 30.9707 194.825 31.4413C195.923 31.9119 197.091 32.1472 198.318 32.1472H200.085C201.048 32.1295 201.829 31.3413 201.829 30.359C201.829 29.3766 201.048 28.5942 200.085 28.5766M180.845 26.2354L180.417 26.6648L180.006 27.0766C179.149 27.9354 178.151 28.4472 177.023 28.6237C175.878 28.8001 174.804 28.6354 173.794 28.1236L183.775 18.1236L182.53 16.8766C181.65 15.9884 180.658 15.3295 179.542 14.8884C178.438 14.4472 177.305 14.2236 176.154 14.2236C175.004 14.2236 173.876 14.4472 172.761 14.8884C171.657 15.3295 170.665 15.9884 169.778 16.8766C168.898 17.7589 168.246 18.7531 167.817 19.8472C167.383 20.9472 167.177 22.0707 167.177 23.2237C167.177 24.3766 167.383 25.5001 167.817 26.6178C168.246 27.7295 168.898 28.7295 169.778 29.606C170.635 30.4648 171.61 31.1236 172.708 31.5766C173.806 32.0295 174.957 32.2589 176.154 32.2589C177.352 32.2589 178.509 32.0354 179.595 31.5766C180.693 31.1236 181.667 30.4648 182.525 29.606L182.941 29.1884L183.37 28.7531C184.057 28.0589 184.057 26.9236 183.37 26.2295C182.671 25.5354 181.55 25.5354 180.845 26.2295M172.726 24.1237C172.068 24.7825 171.575 25.2648 171.258 25.5884C170.888 24.8413 170.7 24.0531 170.7 23.2237C170.7 21.7237 171.24 20.4354 172.309 19.3707C173.154 18.5119 174.152 18.006 175.291 17.8472C176.424 17.6825 177.499 17.8531 178.515 18.3648C178.139 18.7413 177.605 19.2589 176.935 19.9295C176.254 20.6001 175.544 21.306 174.798 22.0354C174.064 22.7707 173.377 23.4707 172.726 24.1295M209.873 12.3001C208.904 12.3001 208.111 13.0942 208.111 14.0766V30.559C208.111 31.5472 208.904 32.3413 209.873 32.3413C210.841 32.3413 211.64 31.5472 211.64 30.559V14.9825V14.0766C211.64 13.0942 210.841 12.3001 209.867 12.3001M174.968 12.2413L175.321 12.1001L179.524 10.5237L179.771 10.4354C180.335 10.2413 180.652 9.59424 180.47 8.98835C180.288 8.38247 179.683 8.05306 179.125 8.25306L178.843 8.35307L174.751 9.85895L174.628 9.906L174.234 10.0648C173.677 10.2884 173.389 10.959 173.589 11.5531C173.794 12.159 174.411 12.4648 174.968 12.2413Z" fill="white"/>
<mask id="mask0_1002_6" style="mask-type:luminance" maskUnits="userSpaceOnUse" x="80" y="6" width="179" height="27">
<path d="M258.868 6.72949H80.7648V32.3883H258.868V6.72949Z" fill="white"/>
</mask>
<g mask="url(#mask0_1002_6)">
<path d="M121.3 12.3354C120.319 12.3354 119.527 13.1354 119.527 14.1178V30.6001C119.527 31.5825 120.319 32.3825 121.3 32.3825C122.28 32.3825 123.055 31.5825 123.055 30.6001V29.7001V15.0178V14.1178C123.055 13.1354 122.274 12.3354 121.3 12.3354ZM110.555 14.8472C109.727 14.0236 108.765 13.3883 107.678 12.9177C106.604 12.453 105.436 12.2178 104.179 12.2178C102.711 12.2178 101.343 12.5472 100.087 13.2001C98.8364 13.8589 97.7913 14.7472 96.9634 15.8707C96.1356 14.7413 95.1023 13.8589 93.8634 13.2001C92.6187 12.5413 91.239 12.2178 89.7477 12.2178C88.5206 12.2178 87.3581 12.453 86.272 12.9177C85.174 13.3883 84.2112 14.0295 83.3951 14.8472C82.579 15.6648 81.9449 16.6119 81.4811 17.7001C81.0055 18.7825 80.7765 19.953 80.7765 21.2119V30.253H80.8235V30.553C80.8235 31.5354 81.6102 32.3354 82.579 32.3354C83.5477 32.3354 84.3462 31.5354 84.3462 30.553V21.2119C84.3462 20.4589 84.4871 19.7589 84.7689 19.106C85.039 18.4531 85.4383 17.8707 85.9314 17.3766C86.4246 16.8766 87 16.4942 87.6517 16.2119C88.3093 15.9295 89.0021 15.7883 89.7477 15.7883C90.4934 15.7883 91.2155 15.9295 91.8848 16.2119C92.5542 16.4942 93.1354 16.8766 93.6286 17.3766C94.1218 17.8707 94.5034 18.4531 94.7852 19.106C95.0612 19.7648 95.2021 20.4648 95.2021 21.2119V29.5119C95.2021 30.4942 96.0064 31.2883 96.9928 31.2883C97.9792 31.2883 98.7718 30.4942 98.7718 29.5119V21.2119C98.7718 20.4589 98.9244 19.7589 99.1945 19.106C99.4822 18.4531 99.8638 17.8707 100.357 17.3766C100.85 16.8766 101.426 16.4942 102.077 16.2119C102.729 15.9295 103.439 15.7883 104.185 15.7883C104.931 15.7883 105.635 15.9295 106.305 16.2119C106.974 16.4942 107.555 16.8766 108.048 17.3766C108.547 17.8707 108.929 18.4531 109.217 19.106C109.498 19.7648 109.639 20.4648 109.639 21.2119V30.253H109.645V30.553C109.645 31.5354 110.426 32.3354 111.401 32.3354C112.375 32.3354 113.168 31.5354 113.168 30.553V30.253H113.209V21.2119C113.209 19.953 112.968 18.7825 112.499 17.7001C112.035 16.6119 111.389 15.6648 110.561 14.8472M159.234 14.9589C158.406 14.1472 157.443 13.5001 156.374 13.0295C155.294 12.5648 154.12 12.3236 152.863 12.3236C151.395 12.3236 150.027 12.6531 148.771 13.3119C147.52 13.9707 146.475 14.8531 145.642 15.9766C144.814 14.8531 143.78 13.9648 142.542 13.3119C141.297 12.6531 139.923 12.3236 138.438 12.3236C137.199 12.3236 136.042 12.5648 134.95 13.0295C133.852 13.4942 132.895 14.1413 132.079 14.9589C131.263 15.7707 130.623 16.7236 130.159 17.8119C129.684 18.8942 129.449 20.0707 129.449 21.3236V30.553C129.449 31.5354 130.253 32.3354 131.24 32.3354C132.226 32.3354 133.019 31.5354 133.019 30.553V21.3236C133.019 20.5766 133.154 19.8707 133.441 19.2119C133.729 18.5589 134.111 17.9825 134.61 17.4883C135.103 16.9942 135.672 16.606 136.33 16.3236C136.987 16.0413 137.692 15.9001 138.444 15.9001C139.195 15.9001 139.894 16.0413 140.563 16.3236C141.232 16.606 141.814 16.9942 142.307 17.4883C142.8 17.9825 143.182 18.5589 143.475 19.2119C143.745 19.8648 143.898 20.5707 143.898 21.3236V29.5119C143.898 30.4942 144.691 31.2883 145.677 31.2883C146.663 31.2883 147.456 30.4942 147.456 29.5119V21.3236C147.456 20.5766 147.603 19.8707 147.879 19.2119C148.166 18.5589 148.548 17.9825 149.041 17.4883C149.534 16.9942 150.11 16.606 150.767 16.3236C151.431 16.0413 152.129 15.9001 152.875 15.9001C153.621 15.9001 154.325 16.0413 154.994 16.3236C155.664 16.606 156.245 16.9942 156.738 17.4883C157.231 17.9825 157.625 18.5589 157.901 19.2119C158.188 19.8648 158.323 20.5707 158.323 21.3236V30.3589H158.329V30.553C158.329 31.5354 159.116 32.3354 160.102 32.3354C161.089 32.3354 161.881 31.5354 161.881 30.553V30.3589H161.893V21.3236C161.893 20.0707 161.658 18.8942 161.183 17.8119C160.719 16.7236 160.073 15.7766 159.245 14.9589M235.87 30.3295C235.87 30.1295 235.865 29.9236 235.847 29.7236V29.6883C235.765 28.4589 235.448 27.306 234.896 26.2295C234.238 24.9707 233.346 23.9236 232.23 23.0942C233.346 22.2648 234.244 21.2295 234.896 19.9825C235.548 18.7413 235.876 17.3648 235.876 15.8648V14.0648C235.876 13.0825 235.09 12.2825 234.109 12.2825C233.129 12.2825 232.354 13.0766 232.354 14.0648V14.1001H232.307V15.8648C232.307 16.6178 232.172 17.3236 231.884 17.9942C231.614 18.6589 231.215 19.2413 230.721 19.7354C230.222 20.2295 229.653 20.6236 229.001 20.9001C228.349 21.1825 227.651 21.3236 226.899 21.3236C225.884 21.3236 224.915 21.4825 223.993 21.806C223.071 22.1295 222.22 22.5884 221.439 23.1707V9.406V8.50598C221.439 7.51775 220.641 6.72363 219.66 6.72363C218.68 6.72363 217.881 7.51775 217.881 8.50598V9.24128H217.875V30.5766H217.881C217.881 31.5589 218.674 32.3589 219.66 32.3589C220.646 32.3589 221.433 31.5589 221.433 30.5766V30.2472C221.445 29.5236 221.592 28.8413 221.856 28.2119C222.138 27.553 222.519 26.9766 223.018 26.4825C223.517 25.9884 224.093 25.606 224.768 25.3178C225.431 25.0354 226.154 24.9001 226.893 24.9001C227.633 24.9001 228.344 25.0354 228.995 25.3178C229.653 25.606 230.222 25.9884 230.716 26.4825C231.209 26.9766 231.608 27.553 231.878 28.2119C232.095 28.7001 232.224 29.2178 232.271 29.7589V30.5707C232.271 31.553 233.082 32.353 234.074 32.353C235.066 32.353 235.87 31.553 235.87 30.5707V30.4236V30.3178V30.3295ZM258.193 19.5825C257.729 18.5001 257.077 17.5472 256.261 16.7354C255.451 15.9236 254.5 15.2766 253.425 14.8119C252.345 14.3413 251.171 14.1119 249.914 14.1119C248.658 14.1119 247.519 14.3472 246.421 14.8119C245.335 15.2766 244.36 15.9236 243.532 16.7354C242.705 17.5472 242.059 18.5001 241.595 19.5825C241.113 20.6707 240.884 21.8413 240.884 23.0942C240.884 24.3472 241.113 25.4883 241.595 26.5883C242.059 27.6825 242.699 28.6472 243.532 29.4766C244.36 30.306 245.329 30.9531 246.421 31.4236C247.519 31.8942 248.681 32.1236 249.914 32.1236H258.891V23.0825C258.891 21.8295 258.657 20.6531 258.193 19.5707M255.328 28.5472H249.914C249.163 28.5472 248.458 28.4119 247.789 28.1295C247.12 27.8413 246.538 27.4589 246.045 26.9648C245.552 26.4707 245.165 25.8883 244.883 25.2178C244.595 24.5472 244.46 23.8354 244.46 23.0883C244.46 22.3413 244.595 21.6354 244.883 20.9766C245.17 20.3236 245.552 19.7472 246.045 19.2531C246.538 18.7589 247.12 18.3707 247.789 18.0883C248.458 17.806 249.157 17.6648 249.914 17.6648C250.672 17.6648 251.359 17.806 252.022 18.0883C252.674 18.3648 253.249 18.7589 253.748 19.2531C254.241 19.7472 254.623 20.3236 254.911 20.9766C255.187 21.6354 255.328 22.3354 255.328 23.0883V28.5531V28.5472ZM200.109 28.5589V28.5472H198.342C197.59 28.5472 196.886 28.4119 196.222 28.1295C195.553 27.8413 194.972 27.4589 194.478 26.9648C193.985 26.4707 193.586 25.8883 193.316 25.2178C193.028 24.5472 192.893 23.8354 192.893 23.0883V21.2825H198.465H198.788C199.768 21.2825 200.561 20.4825 200.561 19.5001C200.561 18.5178 199.768 17.7178 198.788 17.7178H198.465H192.893V8.69422H192.887V8.5707C192.887 7.55305 192.095 6.72952 191.108 6.72952C190.122 6.72952 189.318 7.55305 189.318 8.5707V9.50599V23.1001C189.318 24.3354 189.547 25.4942 190.022 26.5942C190.486 27.6883 191.132 28.653 191.966 29.4825C192.793 30.3119 193.75 30.9589 194.848 31.4295C195.952 31.9001 197.109 32.1295 198.342 32.1295H200.109C201.078 32.1119 201.853 31.3236 201.853 30.3472C201.853 29.3707 201.072 28.5825 200.109 28.5648M180.857 26.1884L180.44 26.6178L180.023 27.0354C179.166 27.8942 178.168 28.406 177.035 28.5825C175.902 28.7589 174.827 28.5883 173.812 28.0766L183.787 18.0766L182.542 16.8295C181.667 15.9472 180.669 15.2825 179.554 14.8413C178.45 14.3942 177.311 14.1766 176.166 14.1766C175.021 14.1766 173.894 14.3942 172.778 14.8413C171.675 15.2825 170.682 15.9472 169.79 16.8295C168.915 17.7119 168.258 18.7001 167.829 19.8001C167.4 20.8942 167.189 22.0236 167.189 23.1707C167.189 24.3178 167.395 25.4531 167.829 26.5648C168.258 27.6825 168.915 28.6766 169.79 29.5589C170.647 30.4178 171.622 31.0766 172.72 31.5295C173.823 31.9825 174.968 32.2119 176.166 32.2119C177.364 32.2119 178.526 31.9883 179.618 31.5295C180.705 31.0766 181.691 30.4178 182.536 29.5589L182.959 29.1413H182.953L183.388 28.7119C184.086 28.0178 184.086 26.8825 183.388 26.1884C182.683 25.4884 181.562 25.4884 180.863 26.1884M172.743 24.0825C172.086 24.7413 171.604 25.2295 171.269 25.5472C170.9 24.7942 170.706 24.006 170.706 23.1766C170.706 21.6825 171.252 20.3942 172.32 19.3236C173.172 18.4648 174.164 17.953 175.309 17.7942C176.442 17.6354 177.516 17.8119 178.538 18.3236C178.156 18.7001 177.634 19.2178 176.953 19.8883C176.266 20.5589 175.567 21.2648 174.827 22.0001C174.082 22.7354 173.401 23.4295 172.743 24.0883M209.861 12.2942C208.88 12.2942 208.094 13.0883 208.094 14.0766V14.1119V29.8001V30.5589C208.094 31.5413 208.88 32.3413 209.861 32.3413C210.841 32.3413 211.616 31.5413 211.616 30.5589V14.0766C211.616 13.0942 210.83 12.2942 209.861 12.2942ZM174.992 12.206L175.338 12.0648L179.548 10.4884L179.8 10.4001C180.37 10.206 180.681 9.55893 180.499 8.95305C180.317 8.35305 179.712 8.02364 179.149 8.21776L178.873 8.31776L174.775 9.82364L174.657 9.8707L174.258 10.0236C173.7 10.2472 173.418 10.9178 173.612 11.5178C173.818 12.1236 174.434 12.4236 174.998 12.206" fill="white"/>
</g>
<mask id="mask1_1002_6" style="mask-type:luminance" maskUnits="userSpaceOnUse" x="52" y="11" width="18" height="18">
<path d="M69.5155 11.7881H52.5007V28.2057H69.5155V11.7881Z" fill="white"/>
</mask>
<g mask="url(#mask1_1002_6)">
<path d="M65.1181 14.4822C65.2883 13.2292 64.4077 12.0292 63.1571 11.8175C61.9007 11.6116 60.6853 12.4586 60.4446 13.7057L59.7753 17.1351C59.5345 18.3822 58.3779 19.7998 57.1978 20.2763L53.9745 21.5998C52.7944 22.088 52.2131 23.4528 52.6535 24.6351C53.1056 25.8233 54.4442 26.4586 55.6478 26.0469L58.9474 24.9057C60.151 24.4939 61.9476 24.7939 62.9575 25.5704L65.7052 27.7116C66.7092 28.4881 68.1887 28.3175 68.999 27.341C69.8092 26.3586 69.6741 24.8704 68.723 24.041L66.0927 21.7469C65.1298 20.9116 64.4899 19.1939 64.6601 17.941L65.124 14.4763L65.1181 14.4822Z" fill="white"/>
</g>
<mask id="mask2_1002_6" style="mask-type:luminance" maskUnits="userSpaceOnUse" x="47" y="32" width="26" height="28">
<path d="M72.416 32.5645H47.3165V59.3174H72.416V32.5645Z" fill="white"/>
</mask>
<g mask="url(#mask2_1002_6)">
<path d="M70.1966 37.6938C70.9599 35.8585 70.1027 33.6997 68.3061 32.8879C66.5095 32.0762 64.3137 32.8644 63.4565 34.6467L61.0787 39.5585C60.2215 41.3409 57.9141 43.0115 55.9413 43.2644L50.5633 43.9644C48.5906 44.2174 47.1521 46.0409 47.3459 48.0173C47.5455 49.9879 49.3304 51.482 51.3031 51.3409L56.7222 50.9526C58.6949 50.8115 61.2959 51.9821 62.4936 53.5585L65.7991 57.882C67.0086 59.4585 69.2984 59.7997 70.9071 58.6468C72.5099 57.4879 72.915 55.1938 71.8112 53.5585L68.7582 49.0468C67.6485 47.4056 67.355 44.5644 68.1182 42.7291L70.2143 37.6997L70.1966 37.6938Z" fill="white"/>
</g>
<mask id="mask3_1002_6" style="mask-type:luminance" maskUnits="userSpaceOnUse" x="19" y="12" width="18" height="18">
<path d="M36.2668 12.1001H19.8215V29.1177H36.2668V12.1001Z" fill="white"/>
</mask>
<g mask="url(#mask3_1002_6)">
<path d="M33.9653 15.2178C34.3587 14.0061 33.7128 12.6649 32.5268 12.2355C31.3291 11.8002 29.9729 12.412 29.509 13.6002L28.235 16.8473C27.7594 18.0296 26.3621 19.2061 25.1232 19.4708L21.7121 20.1825C20.4674 20.4355 19.6454 21.6767 19.8626 22.9237C20.0799 24.1767 21.2952 25.0414 22.5458 24.859L26.0039 24.3414C27.2545 24.159 28.9748 24.7826 29.8143 25.7296L32.1335 28.3355C32.9789 29.2767 34.4643 29.3825 35.4331 28.5708C36.4077 27.7531 36.5545 26.2708 35.7619 25.2767L33.5954 22.5414C32.7969 21.5473 32.4799 19.7414 32.8732 18.5355L33.9653 15.2237V15.2178Z" fill="white"/>
</g>
<mask id="mask4_1002_6" style="mask-type:luminance" maskUnits="userSpaceOnUse" x="39" y="0" width="17" height="18">
<path d="M55.6477 0.482422H39.7308V17.6707H55.6477V0.482422Z" fill="white"/>
</mask>
<g mask="url(#mask4_1002_6)">
<path d="M44.0227 1.47069C43.277 0.441275 41.821 0.17069 40.7759 0.876572C39.725 1.58834 39.4079 3.04716 40.089 4.12363L41.956 7.07657C42.6195 8.14716 42.7486 9.97657 42.2261 11.1354L40.7876 14.3119C40.2534 15.4707 40.7583 16.8766 41.8914 17.4295C43.0305 17.9942 44.4454 17.5295 45.0325 16.406L46.6647 13.3178C47.246 12.1883 48.7666 11.1707 50.0348 11.0472L53.5047 10.7119C54.767 10.5824 55.724 9.44716 55.6418 8.18245C55.5538 6.91187 54.4441 5.91774 53.1876 5.97068L49.7002 6.11187C48.432 6.15893 46.788 5.35304 46.0541 4.31774L44.0227 1.47069Z" fill="white"/>
</g>
<mask id="mask5_1002_6" style="mask-type:luminance" maskUnits="userSpaceOnUse" x="39" y="24" width="17" height="18">
<path d="M55.7417 24.3115H39.2671V41.3174H55.7417V24.3115Z" fill="white"/>
</mask>
<g mask="url(#mask5_1002_6)">
<path d="M46.1247 25.8292C45.6785 24.6468 44.3163 24.0233 43.1186 24.4468C41.9326 24.8703 41.2692 26.2056 41.6508 27.4174L42.7194 30.7468C43.1127 31.9527 42.7839 33.7527 41.9737 34.7409L39.7955 37.4586C38.9911 38.4468 39.1321 39.9292 40.0949 40.7527C41.0578 41.5762 42.5432 41.4821 43.3946 40.5409L45.7372 37.9586C46.5944 37.0115 48.3146 36.4056 49.5711 36.5997L53.0057 37.1409C54.2622 37.3351 55.4716 36.4762 55.7065 35.2292C55.9355 33.9821 55.1076 32.7409 53.8688 32.4762L50.4752 31.7409C49.2364 31.4644 47.8391 30.2821 47.387 29.0997L46.1305 25.8351L46.1247 25.8292Z" fill="white"/>
</g>
<mask id="mask6_1002_6" style="mask-type:luminance" maskUnits="userSpaceOnUse" x="19" y="33" width="18" height="17">
<path d="M36.1495 33.2529H19.1582V49.7118H36.1495V33.2529Z" fill="white"/>
</mask>
<g mask="url(#mask6_1002_6)">
<path d="M31.8635 35.9706C32.0397 34.7176 31.1648 33.5059 29.9143 33.2823C28.6637 33.0647 27.4366 33.9059 27.1842 35.1529L26.4914 38.5765C26.2389 39.8176 25.0646 41.2235 23.8787 41.7L20.6436 42.9941C19.4753 43.4588 18.8588 44.8235 19.305 46.0176C19.7336 47.2118 21.0722 47.8529 22.2876 47.4529L25.5931 46.347C26.7849 45.947 28.5874 46.2588 29.5855 47.047L32.3215 49.2117C33.3196 50 34.7933 49.8412 35.6094 48.8706C36.4196 47.9 36.3198 46.4059 35.3628 45.5706L32.7559 43.2529C31.7989 42.4059 31.1766 40.6941 31.3645 39.4353L31.8694 35.9765L31.8635 35.9706Z" fill="white"/>
</g>
</g>
<defs>
<clipPath id="clip0_1002_6">
<rect width="277" height="59" fill="white"/>
</clipPath>
</defs>
</svg>
