<?xml version="1.0" encoding="UTF-8"?>
<svg id="Camada_2" data-name="Camada 2" xmlns="http://www.w3.org/2000/svg" viewBox="0 0 43.5 46.23">
  <defs>
    <style>
      .cls-1 {
        fill: none;
        stroke: #18417f;
        stroke-miterlimit: 10;
        stroke-width: .75px;
      }
    </style>
  </defs>
  <g id="Camada_1-2" data-name="Camada 1">
    <path class="cls-1" d="m39.34,9.09c1.3-3.12-.16-6.79-3.22-8.17-3.06-1.38-6.8-.04-8.26,2.99l-4.05,8.34c-1.46,3.03-5.39,5.87-8.75,6.3l-9.16,1.19c-3.36.43-5.81,3.53-5.48,6.89.35,3.35,3.38,5.89,6.74,5.65l9.23-.66c3.36-.24,7.79,1.75,9.83,4.43l5.63,7.35c2.06,2.68,5.96,3.26,8.7,1.3,2.73-1.97,3.42-5.87,1.55-8.65l-5.21-7.67c-1.89-2.79-2.39-7.63-1.09-10.74l3.57-8.55Z"/>
  </g>
</svg>