<svg width="49" height="49" viewBox="0 0 49 49" fill="none" xmlns="http://www.w3.org/2000/svg">
<rect width="49" height="49" rx="10" fill="#51B6FF"/>
<path d="M18.375 33.0138L11.2904 25.9292C10.9087 25.5475 10.3909 25.333 9.85104 25.333C9.31117 25.333 8.79341 25.5475 8.41167 25.9292C8.02992 26.311 7.81546 26.8287 7.81546 27.3686C7.81546 27.6359 7.86811 27.9006 7.97041 28.1476C8.07271 28.3946 8.22265 28.619 8.41167 28.808L16.9458 37.3422C17.7421 38.1384 19.0283 38.1384 19.8246 37.3422L41.4254 15.7413C41.8072 15.3596 42.0216 14.8418 42.0216 14.3019C42.0216 13.7621 41.8072 13.2443 41.4254 12.8626C41.0437 12.4808 40.5259 12.2664 39.986 12.2664C39.4462 12.2664 38.9284 12.4808 38.5467 12.8626L18.375 33.0138Z" fill="white"/>
</svg>
