<svg width="36" height="24" viewBox="0 0 36 24" fill="none" xmlns="http://www.w3.org/2000/svg">
<path d="M36 10.8V13.2C36 13.5183 35.842 13.8235 35.5607 14.0485C35.2794 14.2736 34.8978 14.4 34.5 14.4H1.5C1.10218 14.4 0.720645 14.2736 0.43934 14.0485C0.158036 13.8235 0 13.5183 0 13.2V10.8C0 10.4817 0.158036 10.1765 0.43934 9.95147C0.720645 9.72643 1.10218 9.6 1.5 9.6H34.5C34.8978 9.6 35.2794 9.72643 35.5607 9.95147C35.842 10.1765 36 10.4817 36 10.8ZM34.5 19.2H1.5C1.10218 19.2 0.720645 19.3264 0.43934 19.5515C0.158036 19.7765 0 20.0817 0 20.4V22.8C0 23.1183 0.158036 23.4235 0.43934 23.6485C0.720645 23.8736 1.10218 24 1.5 24H34.5C34.8978 24 35.2794 23.8736 35.5607 23.6485C35.842 23.4235 36 23.1183 36 22.8V20.4C36 20.0817 35.842 19.7765 35.5607 19.5515C35.2794 19.3264 34.8978 19.2 34.5 19.2ZM34.5 0H1.5C1.10218 0 0.720645 0.126428 0.43934 0.351472C0.158036 0.576516 0 0.88174 0 1.2V3.6C0 3.91826 0.158036 4.22348 0.43934 4.44853C0.720645 4.67357 1.10218 4.8 1.5 4.8H34.5C34.8978 4.8 35.2794 4.67357 35.5607 4.44853C35.842 4.22348 36 3.91826 36 3.6V1.2C36 0.88174 35.842 0.576516 35.5607 0.351472C35.2794 0.126428 34.8978 0 34.5 0Z" fill="white"/>
</svg>
